<svg viewBox="0 0 123 31" xmlns="http://www.w3.org/2000/svg" class="icon icon--logo-colored" fill=""><path fill-rule="evenodd" clip-rule="evenodd" d="M17.4624 7.517C17.1036 5.81209 15.1986 4.68215 13.0925 4.96378C10.9019 5.26054 9.32437 6.97326 9.57134 8.78605C9.74852 10.1166 10.8594 11.1348 12.3017 11.4857C11.1474 13.3912 8.6669 14.0004 6.76138 12.846C5.72027 12.2154 5.01937 11.1484 4.85439 9.94284C4.85439 9.86572 4.83535 9.78469 4.83145 9.71148C4.54982 6.52568 7.32269 3.60199 11.1372 3.08559C12.6615 2.86838 14.2161 3.09047 15.6188 3.72548C12.5028 -0.0245574 6.93709 -0.538522 3.18657 2.57699C-0.563467 5.69299 -1.07743 11.2587 2.03808 15.0093C5.15408 18.7593 10.7198 19.2738 14.4704 16.1578C16.8088 14.2146 17.9827 11.2051 17.5781 8.19204C17.5512 7.96459 17.5087 7.74055 17.4624 7.517Z" fill="black"></path><path fill-rule="evenodd" clip-rule="evenodd" d="M57.1489 10.0199H57.1143L52.3934 0.751953H49.3428V13.1437H51.7184V3.87625H51.7569L56.4934 13.1437H59.5284V0.751953H57.1489V10.0199Z" fill="black"></path><path fill-rule="evenodd" clip-rule="evenodd" d="M45.2045 7.91021C45.2045 10.0198 44.5294 11.4045 42.6317 11.4045C40.7345 11.4045 40.0594 10.0198 40.0594 7.91021V0.771332H37.5755V8.67359C37.5755 11.9907 39.4576 13.3603 42.6317 13.3603C45.8058 13.3603 47.6879 11.9907 47.6879 8.67359V0.771332H45.2045V7.91021Z" fill="black"></path><path fill-rule="evenodd" clip-rule="evenodd" d="M60.3578 2.70351H63.9024V13.1439H66.3863V2.70351H69.9303V0.752106H60.3578V2.70351Z" fill="black"></path><mask id="mask0_433_3619" style="mask-type:alpha" maskUnits="userSpaceOnUse" x="0" y="0" width="123" height="30"><path fill-rule="evenodd" clip-rule="evenodd" d="M0 29.8286H123V9.15527e-05H0V29.8286Z" fill="white"></path></mask><g mask="url(#mask0_433_3619)"><path fill-rule="evenodd" clip-rule="evenodd" d="M33.4335 13.1479H35.9214V0.752197H33.4335V13.1479Z" fill="black"></path><path fill-rule="evenodd" clip-rule="evenodd" d="M26.7419 8.02604H29.7349L29.7076 10.9302C29.322 11.1303 28.9066 11.267 28.4776 11.3353C27.9094 11.4495 27.3232 11.4364 26.7614 11.2968C24.7207 10.8682 23.5639 9.15988 23.5639 6.98444C23.5639 4.44293 25.1605 2.49152 28.0534 2.49152C29.1512 2.49152 30.2377 2.71458 31.2465 3.14704L31.4047 1.05262C30.2255 0.699238 28.9994 0.526453 27.7679 0.540119C23.5639 0.540119 20.976 2.91568 20.976 7.16211C20.976 11.4085 23.7567 13.3599 27.7679 13.3599C29.1253 13.3243 30.4724 13.1115 31.7752 12.7274V6.04339H26.7419V8.02604Z" fill="black"></path><path fill-rule="evenodd" clip-rule="evenodd" d="M70.7635 13.1479H73.2509V0.752197H70.7635V13.1479Z" fill="black"></path><path fill-rule="evenodd" clip-rule="evenodd" d="M83.4331 3.10862C82.66 2.77281 81.8268 2.59661 80.9839 2.59173C80.1546 2.59173 79.0828 2.95439 79.0828 4.26931C79.0828 6.35592 84.3664 5.47686 84.3664 9.51829C84.3664 12.1643 82.2759 13.1668 79.8427 13.1668C78.7967 13.1644 77.7566 13.0067 76.757 12.7002L76.9844 10.5213C77.8176 10.9909 78.7548 11.2466 79.7114 11.2657C80.6251 11.2657 81.8517 10.7991 81.8517 9.7228C81.8517 7.40874 76.5681 8.37664 76.5681 4.38499C76.5681 1.68534 78.6586 0.705731 80.7794 0.705731C81.7565 0.694017 82.7298 0.839957 83.6606 1.1377L83.4331 3.10862Z" fill="#F78930"></path><path fill-rule="evenodd" clip-rule="evenodd" d="M91.5287 5.97809C91.0377 5.74917 90.5003 5.63691 89.9585 5.65009C88.524 5.65009 87.6103 6.80736 87.6103 8.46591C87.6103 10.124 88.3815 11.3696 90.0093 11.3696C90.6228 11.3442 91.2256 11.2027 91.7869 10.9532L91.8909 12.8817C91.1397 13.0989 90.3592 13.198 89.5768 13.1751C86.6609 13.1633 85.1952 11.1846 85.1952 8.48495C85.1952 5.91268 86.7112 3.85683 89.4919 3.85683C90.2509 3.8417 91.0074 3.94029 91.7366 4.14968L91.5287 5.97809Z" fill="#F78930"></path><path fill-rule="evenodd" clip-rule="evenodd" d="M100.881 12.9587H98.6867V11.7478H98.6554C97.9516 12.6434 96.8753 13.1662 95.7361 13.1672C93.6305 13.1672 92.7163 11.6785 92.7163 9.67288V4.06125H95.0308V8.81286C95.0308 9.90033 95.0308 11.37 96.5307 11.37C98.2049 11.37 98.5671 9.5533 98.5671 8.41164V4.06125H100.881V12.9587Z" fill="#F78930"></path><path fill-rule="evenodd" clip-rule="evenodd" d="M106.35 11.3736C108.128 11.3736 108.595 9.78095 108.595 8.28835C108.595 6.92266 107.87 5.64629 106.35 5.64629C104.831 5.64629 104.125 6.9578 104.125 8.28835C104.125 9.75752 104.591 11.3736 106.35 11.3736ZM106.35 3.85693C108.992 3.85693 111.013 5.63458 111.013 8.57389C111.013 11.1305 109.301 13.1713 106.35 13.1713C103.4 13.1713 101.722 11.1305 101.722 8.57389C101.722 5.63458 103.739 3.85693 106.35 3.85693Z" fill="#F78930"></path><path fill-rule="evenodd" clip-rule="evenodd" d="M111.842 12.959H114.152V3.05176e-05H111.842V12.959Z" fill="#F78930"></path><path fill-rule="evenodd" clip-rule="evenodd" d="M118.646 11.4701C119.283 11.4852 119.887 11.1885 120.266 10.6755C120.627 10.1376 120.799 9.49431 120.755 8.84758H119.753C118.715 8.84758 117.18 9.01744 117.18 10.3905C117.18 11.1616 117.821 11.4779 118.65 11.4779L118.646 11.4701ZM115.946 4.52794C116.919 4.09793 117.968 3.86852 119.031 3.85291C121.731 3.85291 122.861 4.97504 122.861 7.60197V8.75875C122.861 9.65733 122.861 10.3285 122.9 10.9879C122.938 11.6473 122.95 12.2799 123 12.9744H120.964C120.904 12.5332 120.869 12.089 120.86 11.6434H120.825C120.249 12.6074 119.205 13.1941 118.083 13.1863C116.513 13.1863 114.978 12.2335 114.978 10.5408C114.904 9.44989 115.516 8.4288 116.513 7.97975C117.46 7.59416 118.48 7.41795 119.502 7.46286H120.755C120.755 6.03176 120.115 5.53439 118.754 5.53439C117.758 5.55489 116.796 5.89412 116.008 6.50277L115.946 4.52794Z" fill="#F78930"></path><path fill-rule="evenodd" clip-rule="evenodd" d="M73.247 26.3459C72.9093 26.258 72.5642 26.461 72.4763 26.7998C72.4763 26.8003 72.4758 26.8008 72.4758 26.8012C72.348 27.2347 72.1327 27.6374 71.8433 27.9849C71.2971 28.6389 70.3243 28.7263 69.6703 28.1801C69.5068 28.0439 69.3735 27.8746 69.2783 27.6842C69.2422 27.6169 69.2134 27.5456 69.1934 27.4724C69.2495 27.4294 69.314 27.3987 69.3828 27.3835C70.3702 27.1209 71.2141 26.4776 71.7276 25.5937C72.283 24.5946 72.1137 23.5076 71.2805 22.9521C70.9696 22.7374 70.6011 22.6231 70.2238 22.6241C69.5536 22.6358 68.9264 22.958 68.5267 23.4954C68.0146 24.1411 67.7496 24.9479 67.7784 25.7709C67.7501 26.4859 67.5217 27.1781 67.1185 27.7691C66.8837 28.1933 66.6714 28.4359 66.3088 28.3358C66.0349 28.2587 65.8538 28.0815 65.8421 27.4411V26.4542V25.1232C65.8075 24.0357 65.4024 23.3031 64.6082 22.8901C63.7882 22.4631 62.794 22.5582 62.0701 23.1332C62.0355 23.1576 62.0047 23.1854 61.9774 23.2181C61.7124 23.0292 61.4 22.9189 61.0754 22.8979C60.516 22.8979 60.188 23.3529 59.945 23.8004C59.7273 24.228 59.553 24.6761 59.4247 25.1383C59.3627 25.3389 59.2973 25.5244 59.2275 25.7367C59.1582 25.949 59.0928 26.1223 59.0313 26.3185C58.8907 26.8808 58.6505 27.4123 58.3211 27.8887C58.016 28.288 57.5435 28.5228 57.0408 28.5252C56.4941 28.532 55.9865 28.2431 55.7142 27.7691C55.6502 27.6803 55.6034 27.5812 55.5751 27.4758C55.5751 27.4758 55.6141 27.4177 55.8377 27.345C56.9383 27.0614 57.8398 26.2731 58.2674 25.2193C58.6164 24.4369 58.3948 23.5169 57.7276 22.979C56.9774 22.4757 55.987 22.5211 55.2861 23.0907C54.9088 23.407 54.6203 23.8165 54.449 24.2788C54.1859 24.9719 54.0781 25.7143 54.1327 26.4542C53.816 26.524 53.4894 26.3883 53.3152 26.114C53.3015 25.6889 53.2498 25.2657 53.1609 24.8498C52.8642 23.4685 52.0042 22.6432 50.8083 22.6432C50.3583 22.6505 49.9161 22.7569 49.5124 22.956V19.0176C49.5422 18.7848 49.4753 18.549 49.3274 18.366C49.2079 18.2337 49.0297 18.1698 48.853 18.1966C48.6807 18.1947 48.5152 18.2625 48.3942 18.385C48.2487 18.5827 48.1863 18.8292 48.2204 19.0723V27.036C48.2243 27.3386 48.2619 27.6403 48.3322 27.9351C48.4791 28.9206 49.2933 29.6708 50.2875 29.7357C50.4242 29.7576 50.5618 29.7679 50.7005 29.7669C51.541 29.7791 52.317 29.3169 52.706 28.5716C52.8847 28.2602 53.0257 27.9283 53.1263 27.5837C53.18 27.6086 53.2351 27.6291 53.2922 27.6457C53.6139 27.7535 53.958 27.776 54.2909 27.7111C54.5252 28.7248 55.3281 29.5092 56.3467 29.7205C57.6929 30.029 58.9 29.4506 59.6404 28.1469C59.942 27.569 60.1802 26.9599 60.3501 26.3307C60.4004 26.176 60.4462 26.0257 60.4926 25.8753C60.539 25.725 60.5663 25.6518 60.6005 25.5361C60.7137 25.0851 60.8933 24.6536 61.133 24.2553L61.1637 24.2051C61.1628 24.2246 61.1628 24.2436 61.1637 24.2631C61.1872 24.5331 61.2062 24.8069 61.2062 25.0807V27.2098V28.7527C61.175 28.9982 61.2448 29.2456 61.399 29.4389C61.5332 29.5663 61.7163 29.6298 61.9003 29.6122C62.5099 29.5819 62.4904 29.003 62.4865 28.8142V28.7214V26.0759V24.865C62.446 24.3813 62.8047 23.9556 63.2889 23.9146C63.3016 23.9137 63.3143 23.9127 63.3275 23.9122C63.7707 23.8073 64.2251 24.0391 64.3998 24.4599C64.5062 24.7351 64.5545 25.029 64.5423 25.3238V25.4551V26.3185C64.5082 26.9355 64.5443 27.5544 64.6507 28.1625C64.8323 29.1465 65.7777 29.7972 66.7622 29.6156C67.1639 29.5414 67.5285 29.334 67.7974 29.026C67.9453 28.8576 68.0844 28.6809 68.2138 28.4979C68.3958 28.8215 68.6521 29.0968 68.9625 29.3003C69.4535 29.6254 70.028 29.8006 70.6167 29.8055C71.0399 29.803 71.4572 29.7083 71.8394 29.5277C72.9537 29.0221 73.4013 27.9849 73.6712 27.1366C73.7898 26.8169 73.6268 26.4615 73.3071 26.3434C73.2851 26.3356 73.2622 26.3283 73.2392 26.3224M51.6259 27.8809C51.4145 28.3422 50.9025 28.5857 50.411 28.4593C49.9097 28.4232 49.5207 28.0054 49.5202 27.5026C49.4719 26.6978 49.4719 25.89 49.5202 25.0846C49.5217 24.4867 49.9683 23.984 50.5613 23.9122C50.6038 23.9083 50.6463 23.9083 50.6887 23.9122C51.2061 23.9571 51.6449 24.311 51.7996 24.8069C51.9685 25.2345 52.0412 25.6942 52.0115 26.1526C52.0408 26.7529 51.9163 27.3508 51.6488 27.8887M55.9802 24.2671C56.111 24.0596 56.3248 23.919 56.5664 23.8815C56.6947 23.8878 56.8177 23.9351 56.9173 24.0167C57.1296 24.1787 57.3029 24.4023 56.9564 24.9343C56.6108 25.5049 56.0578 25.9197 55.4135 26.0916C55.3657 25.4365 55.5609 24.7874 55.9611 24.2671M69.5561 24.2978C69.6864 24.0796 69.907 23.9317 70.1579 23.8932C70.277 23.8976 70.3912 23.9391 70.4859 24.0128C70.725 24.1704 70.8949 24.3984 70.5435 24.9689C70.1984 25.5195 69.6586 25.9197 69.0314 26.0916C68.983 25.4497 69.1695 24.8118 69.5561 24.2978Z" fill="#F78930"></path><path fill-rule="evenodd" clip-rule="evenodd" d="M83.2363 26.4193C83.1431 26.3724 83.0401 26.348 82.9356 26.346C82.55 26.346 82.4031 26.7043 82.3031 26.9435C82.1566 27.3667 81.9331 27.7591 81.6432 28.1008C81.4386 28.317 81.3039 28.3785 81.1419 28.3282C80.9803 28.2784 80.8876 28.2086 80.8334 27.8694C80.8027 27.6058 80.7895 27.3403 80.7949 27.0748V23.6732C80.8456 23.3418 80.6938 23.0128 80.4093 22.8362C80.1413 22.6873 79.8045 22.7717 79.6381 23.029C79.6171 23.0094 79.5937 22.9923 79.5683 22.9787C79.1617 22.7454 78.7029 22.6194 78.2343 22.6121C77.2635 22.6199 76.403 23.2374 76.0862 24.155C75.5449 25.4929 75.5312 26.985 76.0472 28.3321C76.3273 29.2048 77.1288 29.8052 78.0449 29.8281C78.6921 29.8135 79.3052 29.5348 79.742 29.0569C79.7884 29.011 79.8304 28.9647 79.8767 28.9105C80.2145 29.3566 80.7338 29.628 81.2927 29.6509C81.7091 29.6509 82.326 29.4738 82.9083 28.6367C83.1543 28.2643 83.3549 27.8645 83.5062 27.4452C83.599 27.1944 83.7991 26.6736 83.2402 26.4232M79.0055 27.927C78.6892 28.3668 78.392 28.5327 77.9912 28.4829C77.5837 28.4292 77.2581 28.1164 77.1888 27.7108C76.9272 26.8161 76.915 25.8663 77.1542 24.9652C77.2562 24.3849 77.7423 23.9495 78.3305 23.9119C78.3856 23.908 78.4413 23.908 78.4964 23.9119C79.129 24.0047 79.4951 24.5059 79.4995 25.2893V26.0102C79.5385 26.6906 79.3618 27.3652 78.9943 27.9387" fill="#F78930"></path><path fill-rule="evenodd" clip-rule="evenodd" d="M122.553 26.3998C122.46 26.3529 122.357 26.328 122.252 26.327C121.866 26.327 121.72 26.6853 121.62 26.9245C121.473 27.3476 121.25 27.7401 120.96 28.0812C120.755 28.2975 120.62 28.3595 120.458 28.3087C120.296 28.2589 120.204 28.1896 120.15 27.8504C120.15 27.7571 120.15 27.661 120.126 27.5687C120.104 27.476 120.107 24.7217 120.126 23.6459C120.184 23.2925 120.003 22.9426 119.683 22.7825C119.421 22.6707 119.116 22.7678 118.966 23.0099C118.931 22.9797 118.894 22.9528 118.854 22.9289C118.471 22.7083 118.038 22.5897 117.597 22.5858C116.712 22.597 115.911 23.1119 115.533 23.9119C115.193 24.5342 115.028 25.2361 115.055 25.9444C115.055 26.6467 114.8 27.3061 114.164 28.0739C113.83 28.5425 113.18 28.6518 112.712 28.3185C112.499 28.1676 112.352 27.9426 112.297 27.6883C112.154 27.1963 112.096 26.6833 112.128 26.1723V19.0485C112.128 18.825 112.147 18.2232 111.46 18.2002C111.288 18.191 111.121 18.2539 110.998 18.374C110.86 18.557 110.802 18.7874 110.836 19.0139V22.4847C110.834 22.8142 110.781 23.1407 110.677 23.4531C110.56 23.929 110.145 24.2717 109.655 24.2975C109.378 24.3263 109.115 24.1696 109.008 23.9119L108.953 23.8045C108.546 23.07 107.773 22.6136 106.933 22.6121C106.113 22.6185 105.355 23.0475 104.927 23.746C104.565 24.3366 104.368 25.0131 104.356 25.7057C104.361 26.3129 104.222 26.9132 103.951 27.4565L103.889 27.5761C103.627 28.0661 103.319 28.3014 102.941 28.2086C102.563 28.1164 102.582 27.9812 102.582 27.4028V23.4765C102.612 23.2301 102.542 22.9816 102.389 22.7864C102.266 22.6697 102.1 22.6097 101.93 22.6204C101.294 22.6204 101.29 23.253 101.29 23.4878V23.7733C101.29 24.5909 101.29 25.405 101.263 26.2187C101.27 26.6931 101.177 27.1631 100.989 27.5995C100.704 28.2164 100.218 28.5864 99.7631 28.4903C99.254 28.3824 99.0183 28.0544 98.8948 27.2832C98.8099 26.4759 98.7752 25.6647 98.7908 24.8535V23.419C98.8377 23.069 98.6185 22.739 98.2778 22.6473C98.2276 22.6434 98.1778 22.6434 98.1275 22.6473C97.7033 22.6473 97.5681 23.0329 97.4798 23.2681L97.248 23.9085C97.0088 24.5679 96.7701 25.2273 96.5153 25.8794C96.2513 26.7072 95.8105 27.4677 95.2233 28.1086C94.9471 28.3897 94.5722 28.5513 94.1778 28.5596C93.6731 28.5566 93.2177 28.2535 93.021 27.7884C92.5774 26.8093 92.5705 25.6876 93.0015 24.7026C93.0791 24.2917 93.4091 23.9739 93.8235 23.9119C94.0753 23.9271 94.3169 24.0169 94.5175 24.1706L94.5908 24.2209C94.7372 24.3502 94.9207 24.4303 95.1155 24.4483C95.297 24.444 95.4669 24.3561 95.5743 24.2092C95.9867 23.7001 95.505 23.2955 95.2892 23.11C94.908 22.7776 94.4209 22.5926 93.9157 22.5892C92.939 22.6258 92.0859 23.2603 91.7715 24.1862C91.3044 25.3494 91.2634 26.6399 91.6558 27.8308C91.4552 28.2164 91.2698 28.3897 90.9579 28.3321H90.9227C90.83 28.3102 90.747 28.257 90.688 28.1813C90.7739 27.9612 90.8305 27.7308 90.8573 27.495C90.9447 26.5681 90.6347 25.6471 90.0046 24.9613L89.847 24.7641C89.393 24.2643 89.0279 23.6903 88.7668 23.0675C88.7092 22.9016 88.5359 22.4042 88.0845 22.4042C87.814 22.4428 87.568 22.5804 87.3943 22.7898C86.8618 23.275 86.4064 23.8377 86.0442 24.4596L85.8939 24.6914C85.7299 24.8657 85.6445 25.1 85.6581 25.3391C85.6986 25.5109 85.8075 25.6583 85.9593 25.7481C86.073 25.8262 86.2072 25.8677 86.3449 25.8677C86.6153 25.838 86.8496 25.6676 86.9618 25.4201L87.0199 25.3352C87.1434 25.1541 87.2669 24.9726 87.386 24.7876C87.528 24.5621 87.6925 24.3522 87.876 24.1589C88.1137 24.5772 88.3851 24.9755 88.6858 25.3508C88.943 25.6691 89.1763 26.0054 89.3842 26.3573C89.7528 26.9303 89.6742 27.682 89.1949 28.1662C88.7292 28.5108 88.1391 28.6416 87.5715 28.5249C87.3284 28.4649 87.1058 28.3414 86.9277 28.1662L86.8657 28.1047C86.7358 27.9621 86.5665 27.8616 86.38 27.8152C86.2072 27.785 86.0305 27.8333 85.8973 27.9465C85.4116 28.3321 85.8163 28.7641 86.0057 28.9647C86.4332 29.342 86.956 29.5958 87.5173 29.6973H87.548H87.5715C87.8262 29.7432 88.0845 29.7652 88.3427 29.7632C88.4632 29.7705 88.5843 29.7705 88.7053 29.7632C89.1553 29.7207 89.5844 29.5494 89.9397 29.2693C90.2267 29.5197 90.5957 29.6568 90.9769 29.6549H91.0077C91.5197 29.6427 92.0048 29.424 92.3538 29.0496C92.8351 29.5289 93.4872 29.7984 94.1666 29.7979C94.6117 29.7949 95.0496 29.6851 95.443 29.4777C96.1244 29.0657 96.6793 28.4746 97.0473 27.7693C97.2377 27.4409 97.3954 27.0943 97.5179 26.7351C97.5369 27.1382 97.5989 27.5375 97.7033 27.927C97.9962 28.9725 98.5517 29.566 99.3965 29.7515C100.253 29.9516 101.146 29.6207 101.664 28.911C101.955 29.3513 102.43 29.6353 102.956 29.6822C103.569 29.6822 103.878 29.4547 104.437 28.911C104.549 28.7987 104.649 28.6562 104.796 28.502C105.34 29.4274 105.953 29.8091 106.894 29.813H107.203C108.267 29.7281 109.077 28.9413 109.366 27.7113C109.543 27.0226 109.597 26.3085 109.528 25.6012H109.679C110.087 25.5983 110.487 25.4836 110.836 25.2698V26.4539V26.554C110.817 27.1275 110.906 27.6991 111.098 28.2399C111.424 29.1755 112.298 29.8091 113.289 29.8281C113.926 29.813 114.53 29.5455 114.97 29.0843C115.138 28.9134 115.293 28.7319 115.437 28.5405C116.096 29.5699 116.852 29.8018 117.392 29.8018C118.093 29.7715 118.751 29.4552 119.213 28.9261C119.548 29.3615 120.06 29.6261 120.609 29.647C121.025 29.647 121.646 29.4699 122.229 28.6328C122.472 28.2599 122.671 27.8596 122.823 27.4413C122.919 27.1905 123.116 26.6702 122.557 26.4193M107.866 27.9387C107.561 28.4537 106.896 28.624 106.381 28.3189C106.236 28.2335 106.113 28.1149 106.022 27.9739C105.708 27.4443 105.572 26.8273 105.637 26.2148C105.593 25.6168 105.727 25.0199 106.022 24.4981C106.208 24.1667 106.546 23.9476 106.924 23.9119C107.306 23.9324 107.65 24.1428 107.843 24.4718C108.39 25.243 108.398 27.1441 107.843 27.9426M118.326 27.927C118.013 28.3668 117.712 28.5366 117.315 28.4829C116.909 28.4268 116.584 28.1154 116.513 27.7113C116.251 26.8171 116.239 25.8692 116.478 24.9687C116.583 24.3829 117.076 23.9461 117.67 23.9119C117.725 23.9085 117.781 23.9085 117.836 23.9119C118.468 24.0047 118.835 24.5098 118.839 25.2927V26.0102C118.878 26.6907 118.701 27.3657 118.333 27.9387" fill="#F78930"></path><path fill-rule="evenodd" clip-rule="evenodd" d="M45.4165 22.8324C45.3048 22.6865 45.1334 22.5986 44.9499 22.5933C44.74 22.6123 44.5453 22.7085 44.4023 22.8627C44.1148 23.2088 43.6018 23.2561 43.2562 22.9686C43.2523 22.9657 43.2489 22.9628 43.245 22.9598C42.9048 22.6406 42.3703 22.6582 42.0511 22.9989C42.0096 23.0433 41.9725 23.0921 41.9413 23.1448C41.8876 23.2141 41.8295 23.2795 41.7719 23.3454C41.5181 22.9501 41.0842 22.7075 40.6146 22.6977C39.9508 22.7216 39.3627 23.1316 39.1108 23.7462C38.9717 24.0429 38.8443 24.348 38.7252 24.6526L38.3391 25.5628C38.0809 26.2262 37.4674 27.6534 37.4484 27.7031C37.3825 27.8545 37.2922 27.9936 37.1824 28.1161C37.0901 28.2108 36.9764 28.2806 36.8505 28.3206C36.7982 28.3284 36.7445 28.3284 36.6923 28.3206C36.48 28.303 36.3223 28.1166 36.3399 27.9042C36.3414 27.8911 36.3428 27.8784 36.3453 27.8657C36.3145 27.6016 36.3013 27.3366 36.3067 27.0711V23.6734C36.3565 23.341 36.2052 23.0111 35.9211 22.8324C35.6522 22.6865 35.3159 22.7724 35.1494 23.0287C35.1289 23.0077 35.1055 22.9896 35.0801 22.975C34.6735 22.7412 34.2143 22.6157 33.7457 22.6084C32.7753 22.6162 31.9143 23.2337 31.5976 24.1513C31.599 24.1654 31.599 24.1796 31.5976 24.1937C31.4492 24.511 31.3506 24.8493 31.3042 25.1968C31.232 25.5624 31.1959 25.9343 31.1964 26.3072C31.0036 26.9832 30.6565 27.605 30.1821 28.1239C30 28.3694 29.7165 28.5197 29.4109 28.5329C28.956 28.509 28.565 28.2039 28.4313 27.769C28.2575 27.2975 28.1765 26.7977 28.1916 26.296V22.8246H29.0907C29.1761 22.8256 29.2611 22.8198 29.345 22.8051C29.6852 22.7827 29.9429 22.4893 29.9205 22.1496C29.9195 22.134 29.918 22.1184 29.9161 22.1032C29.899 21.7801 29.6266 21.5292 29.3025 21.5405H29.0907H28.2112V19.1024V19.018C28.2439 18.7876 28.1814 18.5533 28.0379 18.3698C27.9002 18.2512 27.7216 18.1902 27.54 18.2004C26.8997 18.2273 26.9114 18.8213 26.9192 19.0448V19.1376V21.5439H26.0245H25.8122C25.49 21.5356 25.2196 21.785 25.203 22.1076C25.1552 22.4444 25.39 22.7573 25.7277 22.8046C25.7414 22.8066 25.7556 22.808 25.7702 22.809C25.8542 22.8232 25.9391 22.8295 26.0245 22.8285H26.9036V26.1686C26.8958 26.6864 26.9465 27.2043 27.0544 27.711C26.8382 28.1473 26.6375 28.3743 26.3095 28.3133H26.2676C26.1778 28.2923 26.0982 28.2401 26.044 28.1663C26.126 27.9448 26.1831 27.7144 26.2134 27.4796C26.2969 26.5542 25.9874 25.6361 25.3612 24.9498L25.203 24.7531C24.7472 24.2518 24.3806 23.6764 24.119 23.0521C24.0614 22.89 23.8876 22.3927 23.4405 22.3927C23.1682 22.4283 22.9202 22.5664 22.746 22.7783C22.2081 23.2659 21.7473 23.833 21.3808 24.4598L21.2495 24.6838C21.0923 24.8624 21.0152 25.0982 21.0376 25.3354C21.0757 25.5067 21.185 25.6541 21.3383 25.7405C21.451 25.8201 21.5858 25.863 21.7239 25.864C21.9953 25.8328 22.23 25.6614 22.3413 25.4125L22.395 25.3276C22.5224 25.1504 22.642 24.9649 22.7811 24.7838C22.9236 24.5588 23.0862 24.3475 23.2668 24.1513C23.5045 24.5701 23.7754 24.9683 24.0765 25.3432C24.3147 25.6673 24.53 26.0075 24.7208 26.3609C25.08 26.93 25.0054 27.6695 24.5397 28.1546C24.0716 28.4973 23.481 28.6276 22.9119 28.5134C22.6693 28.4524 22.4472 28.3289 22.2681 28.1546L22.2061 28.0965C22.0778 27.954 21.9099 27.852 21.7239 27.8042C21.5506 27.7749 21.3734 27.8227 21.2382 27.935C20.7521 28.3206 21.1611 28.7565 21.3461 28.9571C21.7727 29.3373 22.2959 29.594 22.8582 29.697H22.889H22.9119C23.1662 29.7458 23.4244 29.7693 23.6836 29.7668H24.0419C24.4929 29.7234 24.9214 29.5506 25.2762 29.2694C25.4705 29.4334 25.7004 29.5511 25.9474 29.6126C26.0738 29.6433 26.2031 29.6589 26.333 29.6585C26.8455 29.6394 27.3316 29.4276 27.6943 29.0649C27.9935 29.3944 28.3864 29.6233 28.8208 29.7204C29.0116 29.7658 29.2069 29.7893 29.4031 29.7902C30.1509 29.7756 30.8464 29.4061 31.2774 28.795C31.3735 28.6754 31.497 28.5095 31.5937 28.3782C31.8909 29.2148 32.6733 29.7805 33.5607 29.8015C34.2074 29.7849 34.82 29.5067 35.2578 29.0303C35.3042 28.9839 35.3466 28.9336 35.3925 28.8834L35.3696 28.9146C35.6727 29.3622 36.1788 29.6297 36.7196 29.6282C36.7914 29.6316 36.8636 29.6316 36.9354 29.6282C37.197 29.6018 37.4484 29.5135 37.668 29.37C37.854 29.2611 38.0204 29.123 38.162 28.961C38.4968 28.5846 38.7584 28.1493 38.9332 27.6763C39.0952 27.26 40.0899 24.5911 40.0899 24.5911C40.2173 24.2552 40.3062 24.0278 40.5566 24.0239C40.7342 24.0512 40.7767 24.1278 40.7611 24.614V28.795C40.7245 29.0254 40.786 29.2602 40.9309 29.4427C41.0661 29.5584 41.2389 29.6199 41.4171 29.616C42.0648 29.616 42.0531 28.9917 42.0496 28.7638V28.6793V25.104C42.0535 24.6589 42.4177 24.3011 42.8628 24.3055C42.9307 24.306 42.998 24.3148 43.0639 24.3324C43.2816 24.4109 43.511 24.4515 43.7424 24.4519C44.2944 24.4324 44.821 24.2167 45.2276 23.8428C45.4116 23.7154 45.5381 23.5192 45.5786 23.2991C45.5864 23.1277 45.5254 22.9613 45.4087 22.8363M34.5056 27.9194C34.1894 28.3591 33.8926 28.5251 33.4914 28.4748C33.0848 28.4192 32.7607 28.1078 32.689 27.7031C32.4273 26.8085 32.4151 25.8586 32.6543 24.9576C32.7539 24.3704 33.2444 23.9292 33.8384 23.8931C33.8936 23.8892 33.9487 23.8892 34.0044 23.8931C34.6369 23.9892 35.003 24.4905 35.0069 25.2739V25.9948C35.0455 26.6747 34.8688 27.3498 34.5017 27.9233" fill="#F78930"></path></g></svg>